<?xml version="1.0" encoding="utf-8"?>
<!-- Generator: Adobe Illustrator 27.5.0, SVG Export Plug-In . SVG Version: 6.00 Build 0)  -->
<svg version="1.1" id="Layer_1" xmlns="http://www.w3.org/2000/svg" xmlns:xlink="http://www.w3.org/1999/xlink" x="0px" y="0px"
	 viewBox="0 440 521.44 200" style="enable-background:new 0 0 521.44 636.69;" xml:space="preserve">
<style type="text/css">
	.st0{fill:#002C5B;}
	.st1{fill:#0076BE;}
</style>

<g>
	<path d="M73.18,634.25H44.69L22.87,600.4v33.84H0v-88h35.59c4.91,0,9.17,0.73,12.84,2.15c3.65,1.44,6.67,3.41,9.04,5.89
		c2.37,2.5,4.16,5.36,5.36,8.64c1.2,3.26,1.81,6.77,1.81,10.5c0,6.69-1.62,12.13-4.85,16.28c-3.23,4.16-7.99,6.98-14.3,8.46
		L73.18,634.25z M22.87,585.58h4.32c4.5,0,7.97-0.93,10.39-2.81c2.41-1.86,3.61-4.56,3.61-8.06c0-3.5-1.2-6.18-3.61-8.06
		c-2.41-1.86-5.87-2.81-10.39-2.81h-4.32C22.87,563.84,22.87,585.58,22.87,585.58z"/>
	<path d="M119.58,546.25v47.85c0,2.57,0.09,5.2,0.29,7.88c0.2,2.68,0.78,5.12,1.75,7.29c0.97,2.17,2.52,3.96,4.61,5.31
		c2.1,1.37,5.05,2.04,8.86,2.04s6.75-0.67,8.81-2.04s3.59-3.14,4.61-5.31c1-2.17,1.6-4.61,1.81-7.29c0.2-2.68,0.29-5.31,0.29-7.88
		v-47.85h22.76v51c0,13.69-3.14,23.69-9.39,30c-6.27,6.31-15.9,9.45-28.88,9.45c-13,0-22.65-3.15-28.94-9.45
		c-6.31-6.31-9.45-16.3-9.45-30v-51H119.58z"/>
	<path d="M201.97,634.25l14.93-88h22.65l17.61,46.92l17.51-46.92h22.65l14.93,88h-22.76l-7.59-50.66l-20.77,50.66h-9.1l-19.73-50.66
		l-7.59,50.66C224.72,634.25,201.97,634.25,201.97,634.25z"/>
	<path d="M342.39,546.25h34.08c8.1,0,14.24,1.95,18.44,5.84c4.19,3.88,6.31,9.5,6.31,16.81c0,4.43-0.8,8.11-2.39,11.03
		c-1.6,2.92-4.03,5.4-7.29,7.4c3.26,0.62,6.05,1.57,8.35,2.86c2.3,1.28,4.16,2.86,5.6,4.72c1.44,1.86,2.46,3.98,3.1,6.31
		c0.62,2.33,0.93,4.83,0.93,7.48c0,4.12-0.71,7.79-2.15,10.98c-1.44,3.19-3.46,5.87-6.07,8.06c-2.61,2.17-5.78,3.81-9.52,4.91
		c-3.74,1.09-7.93,1.64-12.6,1.64h-36.76v-88.04H342.39z M365.26,580.78h4.19c7.17,0,10.74-2.84,10.74-8.52
		c0-5.67-3.57-8.52-10.74-8.52h-4.19V580.78L365.26,580.78z M365.26,616.5h5.01c5.76,0,9.88-0.73,12.36-2.22
		c2.5-1.48,3.74-3.85,3.74-7.11c0-3.26-1.24-5.63-3.74-7.11s-6.62-2.22-12.36-2.22h-5.01V616.5L365.26,616.5z"/>
	<path d="M491.79,618.95h-32.68l-5.25,15.28h-24.4l33.5-87.98h24.98l33.5,88h-24.4L491.79,618.95z M485.72,601.57l-10.27-29.28
		l-10.27,29.28H485.72z"/>
</g>
<g>
	<g>
		<path class="st0" d="M250.46,521.41c-14.39,0.68-44.7,0.06-45.25-0.32c-0.84-0.57-0.93-1.65-0.97-2.6
			c-0.76-26.25,0.32-52.53,3.27-78.59l-0.11-0.67c13.14-1.79,26.52-1.44,39.85-1.12c-0.34,5.42-0.29,10.87,0.19,16.29l-0.13,0.29
			c-1.62-0.61-3.38-0.59-5.11-0.55c-6.81,0.11-13.61,0.21-20.42,0.32l0.15-0.87c0.27,4.3-0.49,13.08-0.87,17.36l0.02,0.36
			c7.7-1.43,10.63-1.79,18.5-1.84c0.68,0,1.48,0.06,1.86,0.57c0.27,0.34,0.25,0.8,0.23,1.24c-0.23,4.51-0.8,13.27-0.86,13.16
			l0.68-0.65c-9.28-0.25-13.63-0.15-22.81,1.03c-0.1,6.03,0.51,7.6,0.42,13.63c-0.08,4.37-0.06,4.71,0.95,9.01l-0.13-0.49
			c8.73-0.06,17.45-0.1,26.16-0.15c0.55,0,1.12,0,1.63,0.23c1.08,0.49,1.27,5.84,1.43,6.92c0.36,2.79,0.7,5.61,1.06,8.4
			c-0.32-0.29-0.65-0.57-0.97-0.86"/>
		<path class="st1" d="M195.44,499.14c-0.08-0.65-0.19-1.37-0.67-1.81c-0.51-0.46-18.82,0.78-27.28,1.37c0,0-0.23-39.66,6.24-62.62
			l-24.24,0.13c-2.19,30.91,1.37,82.4,2,82.87c0.4,0.3,30.02,3.46,44.33,5C194.63,514.11,196.64,509.13,195.44,499.14z"/>
		<path class="st1" d="M88.6,470.27c-6.86,0.19-8.31,4.2-15.15,4.39c1.6-13.16,2.19-26.44,1.75-39.7
			c-0.04-1.33-20.55-3.42-22.38-3.42c-5.84,0.02-12.07-0.42-17.68,1.2c-1.75,0.49-6.25,1.2-7.3,2.72c-1.06,1.56-0.11,5.99-0.23,7.95
			c-0.38,6.33-1.63,12.57-2.59,18.84c-3.16,20.4-3.29,41.1-3.42,61.73c22.17,0.21,44.35-0.57,66.46-2.32
			C89.17,504.54,89.36,487.4,88.6,470.27z M46.38,450.57c3.78-1.14,8.73-0.59,12.59-0.04c0.27,0.04,0.57,0.1,0.74,0.29
			c0.21,0.23,0.19,0.57,0.15,0.87c-0.4,4.45,0.06,8.97,1.35,13.27c-4.16,0.25-8.31,0.48-12.47,0.72c-0.25,0.02-0.55,0.02-0.7-0.19
			c-0.1-0.11-0.1-0.27-0.1-0.42C47.71,460.08,47.55,455.21,46.38,450.57z M64.17,507.93c-0.11,0.46-0.27,0.95-0.63,1.22
			c-0.42,0.3-0.97,0.21-1.44,0.1c-7.07-1.56-14.45-1.67-21.62-0.3c0.51-7.15,1.03-14.3,1.54-21.46c0.04-0.44,0.11-0.95,0.46-1.16
			c0.21-0.13,0.46-0.11,0.68-0.1c8.08,0.61,15.93,1.31,23.67,0.19C67.84,493.08,65.9,501.45,64.17,507.93z"/>
		<path class="st1" d="M418.49,525.51c32,0.53,49.41-5.27,81.35-3.42c-2.97-8.38-3.31-17.03-4.16-25.91
			c-19.56-1.06-36.05,2.05-55.11,0.36c-1.46-16.06,1.79-45.95,3-62.03c-7,0.25-21.48-1.03-21.75,1.01c-0.91,7-1.5,12.47-1.71,19.6
			C419.55,474.72,419.02,505.89,418.49,525.51z"/>
		<path class="st0" d="M405.41,480.57c-2.03-15.27,0.1-30.78,0.13-46.16c-10.27,1.94-30.97,3.88-41.24,5.84
			c0.32-0.06,0.4,38.94,0.19,42.57c-0.76,12.81-5.68,28.16-3.92,40.67c4.07-0.15,13.88,0.06,17.91,0.59
			c-0.11-9.28,0-18.56,0.34-27.81c2.79,0,9.43-0.17,12.22-0.15c1.43,7.07,2.55,17.36,3.97,24.45c4.51-0.08,10.89,1.84,15.4,1.77
			C406.09,510.74,407.08,493.12,405.41,480.57z M389.44,478.59c0.72,1.44-8.88,0-8.88,0s0.21-21.65,0-22.72l8.92-0.91
			C389.47,454.96,388.7,477.13,389.44,478.59z"/>
		<path class="st1" d="M349.53,466.31c-0.08-1.12-0.19-2.34-0.93-3.08c-0.67-0.65-1.63-0.7-2.53-0.74
			c-4.73-0.17-9.47-0.34-14.18-0.49c1.56-8.33,1.48-16.96-0.17-25.17c-16.56-0.49-32.6,2.36-48.9,3.97l2.85,82.19
			c21.56,0.36,43.14,0.7,64.7,1.06C350.96,504.79,350.69,485.51,349.53,466.31z M319.55,455.04c0.53,0-0.32,12.78-0.32,12.78
			l-14.7,0.97l-0.36-12.91C304.17,455.87,319.02,455.04,319.55,455.04z M331.95,508.08c-2.72-1.73-26.9,0-26.9,0l-3.46-22.41
			c2.76,0.87,19.79-1.44,28.69-2.64C330.27,483.02,334.66,509.81,331.95,508.08z"/>
		<polygon class="st0" points="493.03,437.57 452.36,437.57 452.36,487.21 499.84,490.04 499.84,476.92 467.86,476.18 467.5,466.41 
			491.66,465.49 491.66,457.36 466.79,456.81 468.03,448.5 492.19,448.5 		"/>
		<path class="st0" d="M137.63,462.49c-0.38-9.96-1.58-19.35-2.93-30.4l-0.82-0.38c-7.66,0.67-26.5-0.02-34.18,0.25l-5.32,90.42
			c3.78,0.06,7.57,0.1,11.35,0.15c2-5.99,2.7-12.36,3.4-18.67c0.3-2.74,0.61-5.46,0.91-8.19c4.03,0,8.08-0.02,12.11-0.02
			c0.51,0,1.08,0.02,1.48,0.36c0.38,0.32,0.53,0.84,0.67,1.33c2.11,7.98,4.81,17.72,6.9,25.7l14.03-1.5
			C140.58,503.88,138.33,480.8,137.63,462.49z M123.54,475.1l-11.37-1.22c0,0,1.86-10.59,1.86-11.39c0-0.8-0.1-13.14-0.1-13.14
			l9.6,1.41C122.69,453.42,123.54,475.1,123.54,475.1z"/>
	</g>
</g>
</svg>
